ply
format ascii 1.0
comment VTK generated PLY File
obj_info vtkPolyData points and polygons: vtk4.0
element vertex 882
property float x
property float y
property float z
element face 0
property list uchar int vertex_indices
end_header
0.599786 -0.63748 1.36717 
0.602029 -0.638671 1.36679 
0.603585 -0.64049 1.36679 
0.580944 -0.625642 1.36727 
0.583168 -0.626813 1.36689 
0.585395 -0.627986 1.36652 
0.586945 -0.629798 1.36652 
0.589175 -0.630975 1.36614 
0.591408 -0.632155 1.36577 
0.592961 -0.63397 1.36577 
0.594513 -0.635785 1.36577 
0.596066 -0.637599 1.36577 
0.597619 -0.639414 1.36577 
0.599171 -0.641228 1.36577 
0.600724 -0.643043 1.36577 
0.602276 -0.644858 1.36577 
0.564448 -0.615103 1.36701 
0.566656 -0.616255 1.36664 
0.568866 -0.61741 1.36626 
0.57041 -0.619215 1.36626 
0.572623 -0.620374 1.36588 
0.57484 -0.621536 1.3655 
0.576386 -0.623343 1.3655 
0.577932 -0.625151 1.3655 
0.579479 -0.626958 1.3655 
0.581025 -0.628766 1.3655 
0.582572 -0.630573 1.3655 
0.584118 -0.632381 1.3655 
0.585665 -0.634188 1.3655 
0.587211 -0.635996 1.3655 
0.588758 -0.637803 1.3655 
0.590304 -0.63961 1.3655 
0.59185 -0.641418 1.3655 
0.593397 -0.643225 1.3655 
0.594943 -0.645033 1.3655 
0.59649 -0.64684 1.3655 
0.598036 -0.648648 1.3655 
0.599583 -0.650455 1.3655 
0.562332 -0.617078 1.36564 
0.563871 -0.618877 1.36564 
0.56541 -0.620675 1.36564 
0.566949 -0.622474 1.36564 
0.568488 -0.624273 1.36564 
0.570028 -0.626072 1.36564 
0.571567 -0.627871 1.36564 
0.573106 -0.629669 1.36564 
0.574645 -0.631468 1.36564 
0.576184 -0.633267 1.36564 
0.577723 -0.635066 1.36564 
0.579262 -0.636865 1.36564 
0.580801 -0.638664 1.36564 
0.58234 -0.640462 1.36564 
0.583879 -0.642261 1.36564 
0.585418 -0.64406 1.36564 
0.586957 -0.645859 1.36564 
0.588496 -0.647658 1.36564 
0.590035 -0.649456 1.36564 
0.591574 -0.651255 1.36564 
0.593113 -0.653054 1.36564 
0.594652 -0.654853 1.36564 
0.5642 -0.615151 1.36199 
0.559096 -0.623441 1.3658 
0.560628 -0.625231 1.3658 
0.56216 -0.627021 1.3658 
0.563691 -0.628811 1.3658 
0.565223 -0.630601 1.3658 
0.566755 -0.632391 1.3658 
0.568286 -0.634182 1.3658 
0.569818 -0.635972 1.3658 
0.57135 -0.637762 1.3658 
0.572881 -0.639552 1.3658 
0.574413 -0.641342 1.3658 
0.575945 -0.643133 1.3658 
0.577476 -0.644923 1.3658 
0.579008 -0.646713 1.3658 
0.58054 -0.648503 1.3658 
0.582071 -0.650293 1.3658 
0.583603 -0.652083 1.3658 
0.585135 -0.653874 1.3658 
0.586666 -0.655664 1.3658 
0.588198 -0.657454 1.3658 
0.58973 -0.659244 1.3658 
0.591261 -0.661034 1.3658 
0.564075 -0.615176 1.35947 
0.554993 -0.62735 1.36559 
0.556519 -0.629133 1.36559 
0.558044 -0.630916 1.36559 
0.55957 -0.632699 1.36559 
0.561095 -0.634482 1.36559 
0.562621 -0.636265 1.36559 
0.564146 -0.638048 1.36559 
0.565672 -0.639831 1.36559 
0.567197 -0.641614 1.36559 
0.568723 -0.643397 1.36559 
0.570248 -0.64518 1.36559 
0.571774 -0.646963 1.36559 
0.573299 -0.648746 1.36559 
0.574825 -0.650529 1.36559 
0.57635 -0.652312 1.36559 
0.577876 -0.654095 1.36559 
0.579401 -0.655878 1.36559 
0.580927 -0.657661 1.36559 
0.582452 -0.659444 1.36559 
0.583978 -0.661227 1.36559 
0.585504 -0.66301 1.36559 
0.587029 -0.664793 1.36559 
0.588555 -0.666575 1.36559 
0.563948 -0.615202 1.35695 
0.558195 -0.624132 1.36117 
0.551751 -0.633676 1.36578 
0.553269 -0.63545 1.36578 
0.554787 -0.637225 1.36578 
0.556305 -0.638999 1.36578 
0.557824 -0.640773 1.36578 
0.559342 -0.642548 1.36578 
0.56086 -0.644322 1.36578 
0.562378 -0.646096 1.36578 
0.563896 -0.647871 1.36578 
0.565414 -0.649645 1.36578 
0.566932 -0.651419 1.36578 
0.56845 -0.653194 1.36578 
0.569969 -0.654968 1.36578 
0.571487 -0.656742 1.36578 
0.573005 -0.658517 1.36578 
0.574523 -0.660291 1.36578 
0.576041 -0.662065 1.36578 
0.577559 -0.66384 1.36578 
0.579077 -0.665614 1.36578 
0.580595 -0.667388 1.36578 
0.582114 -0.669163 1.36578 
0.583632 -0.670937 1.36578 
0.58515 -0.672711 1.36578 
0.564481 -0.614581 1.35403 
0.558738 -0.623508 1.35828 
0.552968 -0.632403 1.36253 
0.549167 -0.639334 1.36561 
0.550679 -0.641101 1.36561 
0.552191 -0.642868 1.36561 
0.553703 -0.644635 1.36561 
0.555215 -0.646403 1.36561 
0.556727 -0.64817 1.36561 
0.558239 -0.649937 1.36561 
0.559751 -0.651704 1.36561 
0.561263 -0.653471 1.36561 
0.562775 -0.655238 1.36561 
0.564287 -0.657005 1.36561 
0.565799 -0.658773 1.36561 
0.567311 -0.66054 1.36561 
0.568823 -0.662307 1.36561 
0.570334 -0.664074 1.36561 
0.571846 -0.665841 1.36561 
0.573358 -0.667608 1.36561 
0.57487 -0.669375 1.36561 
0.576382 -0.671143 1.36561 
0.577894 -0.67291 1.36561 
0.579406 -0.674677 1.36561 
0.580918 -0.676444 1.36561 
0.564351 -0.614611 1.3515 
0.558616 -0.623533 1.35577 
0.552854 -0.632423 1.36003 
0.544406 -0.643856 1.36585 
0.545911 -0.645614 1.36585 
0.547415 -0.647373 1.36585 
0.54892 -0.649131 1.36585 
0.550425 -0.65089 1.36585 
0.551929 -0.652648 1.36585 
0.553434 -0.654407 1.36585 
0.554938 -0.656165 1.36585 
0.556443 -0.657924 1.36585 
0.557947 -0.659682 1.36585 
0.559452 -0.661441 1.36585 
0.560957 -0.663199 1.36585 
0.562461 -0.664958 1.36585 
0.563966 -0.666717 1.36585 
0.56547 -0.668475 1.36585 
0.566975 -0.670234 1.36585 
0.56848 -0.671992 1.36585 
0.569984 -0.673751 1.36585 
0.569428 -0.677362 1.36701 
0.570929 -0.679116 1.36701 
0.573119 -0.680256 1.36662 
0.575312 -0.681398 1.36624 
0.577507 -0.682543 1.36585 
0.564219 -0.614641 1.34897 
0.559154 -0.622913 1.35286 
0.553402 -0.6318 1.35715 
0.547622 -0.640656 1.36143 
0.541816 -0.64948 1.36571 
0.543314 -0.651231 1.36571 
0.544813 -0.652982 1.36571 
0.546311 -0.654734 1.36571 
0.547809 -0.656485 1.36571 
0.549308 -0.658236 1.36571 
0.550806 -0.659988 1.36571 
0.552305 -0.661739 1.36571 
0.551102 -0.66601 1.36727 
0.553272 -0.667127 1.36688 
0.555445 -0.668247 1.36649 
0.556941 -0.669996 1.36649 
0.559117 -0.67112 1.3661 
0.561295 -0.672247 1.36571 
0.562794 -0.673998 1.36571 
0.564976 -0.675129 1.36532 
0.56716 -0.676264 1.36493 
0.569348 -0.677401 1.36454 
0.57085 -0.679156 1.36454 
0.573041 -0.680298 1.36416 
0.575234 -0.681442 1.36377 
0.57743 -0.682589 1.36338 
0.564087 -0.614672 1.34643 
0.559029 -0.62294 1.35034 
0.553285 -0.631823 1.35465 
0.548177 -0.640032 1.35856 
0.54238 -0.648853 1.36286 
0.537221 -0.657002 1.36677 
0.539377 -0.658104 1.36638 
0.540867 -0.659845 1.36638 
0.543026 -0.660951 1.36599 
0.545188 -0.66206 1.36559 
0.547352 -0.663172 1.3652 
0.548846 -0.664917 1.3652 
0.551014 -0.666034 1.36481 
0.553184 -0.667152 1.36442 
0.555357 -0.668274 1.36403 
0.556855 -0.670024 1.36403 
0.559031 -0.67115 1.36364 
0.56121 -0.672279 1.36325 
0.563392 -0.673411 1.36286 
0.564893 -0.675165 1.36286 
0.567078 -0.676302 1.36247 
0.569266 -0.677441 1.36208 
0.571456 -0.678583 1.36168 
0.572961 -0.680341 1.36168 
0.575155 -0.681488 1.36129 
0.577351 -0.682637 1.3609 
0.563953 -0.614704 1.34389 
0.559563 -0.622323 1.34743 
0.553828 -0.631203 1.35175 
0.548066 -0.640052 1.35607 
0.542277 -0.648868 1.36039 
0.537126 -0.657014 1.36432 
0.539282 -0.658118 1.36392 
0.540773 -0.65986 1.36392 
0.542934 -0.660968 1.36353 
0.545096 -0.662079 1.36314 
0.547261 -0.663193 1.36274 
0.548756 -0.66494 1.36274 
0.550924 -0.666058 1.36235 
0.553095 -0.667179 1.36196 
0.555269 -0.668303 1.36157 
0.556767 -0.670054 1.36157 
0.558945 -0.671182 1.36117 
0.561124 -0.672313 1.36078 
0.563307 -0.673447 1.36039 
0.564809 -0.675203 1.36039 
0.566995 -0.676341 1.36 
0.569183 -0.677482 1.3596 
0.571374 -0.678626 1.35921 
0.57288 -0.680386 1.35921 
0.575074 -0.681534 1.35882 
0.577271 -0.682685 1.35842 
0.563818 -0.614738 1.34135 
0.559435 -0.622354 1.3449 
0.553708 -0.631229 1.34924 
0.547954 -0.640073 1.35358 
0.542837 -0.648245 1.35752 
0.53703 -0.657027 1.36186 
0.539187 -0.658132 1.36147 
0.541346 -0.659241 1.36107 
0.54284 -0.660986 1.36107 
0.545003 -0.662099 1.36068 
0.547168 -0.663215 1.36028 
0.549336 -0.664333 1.35989 
0.550833 -0.666083 1.35989 
0.553005 -0.667206 1.35949 
0.555179 -0.668332 1.3591 
0.557356 -0.669461 1.3587 
0.558857 -0.671215 1.3587 
0.561037 -0.672348 1.35831 
0.56322 -0.673484 1.35792 
0.565405 -0.674622 1.35752 
0.56691 -0.676381 1.35752 
0.569099 -0.677524 1.35713 
0.57129 -0.67867 1.35673 
0.573484 -0.679819 1.35634 
0.574992 -0.681581 1.35634 
0.57719 -0.682735 1.35594 
0.563681 -0.614772 1.3388 
0.559964 -0.621741 1.34197 
0.554247 -0.630613 1.34633 
0.548502 -0.639454 1.35069 
0.542731 -0.648263 1.35504 
0.536932 -0.65704 1.3594 
0.53909 -0.658148 1.359 
0.54125 -0.659258 1.35861 
0.542744 -0.661005 1.35861 
0.544908 -0.66212 1.35821 
0.547074 -0.663238 1.35782 
0.549243 -0.664358 1.35742 
0.550741 -0.66611 1.35742 
0.552914 -0.667235 1.35702 
0.555088 -0.668362 1.35663 
0.557266 -0.669493 1.35623 
0.558768 -0.671249 1.35623 
0.560949 -0.672384 1.35584 
0.563132 -0.673521 1.35544 
0.565318 -0.674662 1.35504 
0.566824 -0.676422 1.35504 
0.569013 -0.677567 1.35465 
0.571205 -0.678715 1.35425 
0.5734 -0.679866 1.35385 
0.574909 -0.68163 1.35385 
0.577108 -0.682785 1.35346 
0.563543 -0.614808 1.33625 
0.559833 -0.621774 1.33943 
0.554124 -0.630641 1.34381 
0.548387 -0.639478 1.34819 
0.543286 -0.647643 1.35216 
0.536833 -0.657055 1.35694 
0.538991 -0.658165 1.35654 
0.541152 -0.659277 1.35614 
0.542648 -0.661026 1.35614 
0.544812 -0.662142 1.35575 
0.546979 -0.663262 1.35535 
0.549148 -0.664384 1.35495 
0.550648 -0.666137 1.35495 
0.552821 -0.667264 1.35455 
0.554996 -0.668394 1.35415 
0.557174 -0.669527 1.35376 
0.558677 -0.671284 1.35376 
0.560859 -0.672421 1.35336 
0.563043 -0.67356 1.35296 
0.565229 -0.674703 1.35256 
0.566736 -0.676464 1.35256 
0.568927 -0.677611 1.35216 
0.571119 -0.678761 1.35177 
0.573314 -0.679914 1.35137 
0.574825 -0.68168 1.35137 
0.577024 -0.682837 1.35097 
0.563404 -0.614845 1.33369 
0.5597 -0.621807 1.33689 
0.553999 -0.630671 1.34129 
0.548931 -0.638863 1.34528 
0.543177 -0.647664 1.34968 
0.536733 -0.657071 1.35447 
0.538892 -0.658182 1.35407 
0.541053 -0.659297 1.35367 
0.543217 -0.660414 1.35327 
0.544715 -0.662166 1.35327 
0.546883 -0.663287 1.35287 
0.549052 -0.664412 1.35248 
0.551225 -0.665539 1.35208 
0.552727 -0.667295 1.35208 
0.554903 -0.668427 1.35168 
0.557081 -0.669561 1.35128 
0.559262 -0.670699 1.35088 
0.560768 -0.672458 1.35088 
0.562953 -0.6736 1.35048 
0.56514 -0.674745 1.35008 
0.567329 -0.675893 1.34968 
0.568839 -0.677657 1.34968 
0.571032 -0.678809 1.34928 
0.573228 -0.679963 1.34888 
0.575426 -0.681121 1.34848 
0.576939 -0.68289 1.34848 
0.56392 -0.614239 1.33074 
0.560223 -0.6212 1.33395 
0.554532 -0.630061 1.33836 
0.548813 -0.638889 1.34277 
0.543067 -0.647686 1.34719 
0.536632 -0.657088 1.352 
0.538791 -0.658201 1.3516 
0.540953 -0.659318 1.3512 
0.543117 -0.660437 1.3508 
0.544617 -0.66219 1.3508 
0.546785 -0.663314 1.3504 
0.548955 -0.66444 1.35 
0.551128 -0.665569 1.3496 
0.552631 -0.667326 1.3496 
0.554808 -0.66846 1.34919 
0.556987 -0.669597 1.34879 
0.559169 -0.670736 1.34839 
0.560676 -0.672498 1.34839 
0.562861 -0.673641 1.34799 
0.565049 -0.674788 1.34759 
0.567239 -0.675937 1.34719 
0.568749 -0.677703 1.34719 
0.570943 -0.678857 1.34679 
0.57314 -0.680014 1.34639 
0.575338 -0.681173 1.34598 
0.576853 -0.682943 1.34598 
0.563778 -0.614278 1.32817 
0.560088 -0.621237 1.3314 
0.554404 -0.630093 1.33583 
0.548693 -0.638917 1.34026 
0.543616 -0.647072 1.34429 
0.536529 -0.657106 1.34953 
0.538689 -0.658221 1.34913 
0.540852 -0.65934 1.34873 
0.543016 -0.660461 1.34832 
0.544517 -0.662215 1.34832 
0.546686 -0.663341 1.34792 
0.548857 -0.664469 1.34752 
0.55103 -0.665601 1.34711 
0.552535 -0.667359 1.34711 
0.554712 -0.668495 1.34671 
0.556892 -0.669633 1.34631 
0.559074 -0.670775 1.3459 
0.560582 -0.672538 1.3459 
0.562768 -0.673683 1.3455 
0.564956 -0.674832 1.3451 
0.567147 -0.675984 1.3447 
0.56934 -0.677138 1.34429 
0.570853 -0.678907 1.34429 
0.57305 -0.680065 1.34389 
0.57525 -0.681227 1.34349 
0.577451 -0.682391 1.34308 
0.563635 -0.614319 1.32561 
0.560606 -0.620633 1.32844 
0.554932 -0.629486 1.33289 
0.549231 -0.638307 1.33734 
0.543503 -0.647097 1.34179 
0.537086 -0.65649 1.34665 
0.538586 -0.658242 1.34665 
0.540749 -0.659363 1.34625 
0.542914 -0.660486 1.34584 
0.545082 -0.661612 1.34544 
0.546586 -0.663369 1.34544 
0.548757 -0.6645 1.34503 
0.550931 -0.665633 1.34463 
0.553108 -0.666769 1.34422 
0.554615 -0.668531 1.34422 
0.556795 -0.669671 1.34382 
0.558978 -0.670815 1.34341 
0.561163 -0.671961 1.34301 
0.562674 -0.673727 1.34301 
0.564863 -0.674877 1.3426 
0.567054 -0.676031 1.3422 
0.569248 -0.677187 1.34179 
0.570762 -0.678957 1.34179 
0.57296 -0.680118 1.34139 
0.57516 -0.681281 1.34098 
0.577362 -0.682448 1.34058 
0.56349 -0.61436 1.32304 
0.560467 -0.620672 1.32588 
0.554801 -0.629521 1.33035 
0.549108 -0.638337 1.33482 
0.544047 -0.646486 1.33889 
0.53698 -0.65651 1.34417 
0.538481 -0.658265 1.34417 
0.540645 -0.659387 1.34376 
0.542811 -0.660512 1.34336 
0.54498 -0.66164 1.34295 
0.546484 -0.663399 1.34295 
0.548656 -0.664531 1.34254 
0.550831 -0.665667 1.34214 
0.553008 -0.666805 1.34173 
0.554517 -0.668568 1.34173 
0.556697 -0.66971 1.34132 
0.558881 -0.670855 1.34092 
0.561067 -0.672004 1.34051 
0.562578 -0.673771 1.34051 
0.564768 -0.674923 1.34011 
0.56696 -0.676079 1.3397 
0.569154 -0.677237 1.33929 
0.57067 -0.679009 1.33929 
0.572868 -0.680171 1.33889 
0.575069 -0.681337 1.33848 
0.577272 -0.682505 1.33807 
0.563344 -0.614403 1.32046 
0.560982 -0.620073 1.32291 
0.555325 -0.628918 1.3274 
0.549641 -0.637732 1.33189 
0.543931 -0.646514 1.33638 
0.536873 -0.656532 1.34168 
0.538376 -0.658288 1.34168 
0.54054 -0.659412 1.34128 
0.542706 -0.660539 1.34087 
0.544876 -0.661669 1.34046 
0.546381 -0.663429 1.34046 
0.548554 -0.664564 1.34005 
0.55073 -0.665701 1.33964 
0.552907 -0.666841 1.33924 
0.555088 -0.667984 1.33883 
0.556598 -0.66975 1.33883 
0.558782 -0.670897 1.33842 
0.560969 -0.672048 1.33801 
0.563157 -0.673201 1.3376 
0.564672 -0.674971 1.3376 
0.566864 -0.676128 1.3372 
0.569059 -0.677289 1.33679 
0.571257 -0.678452 1.33638 
0.572775 -0.680226 1.33638 
0.574976 -0.681394 1.33597 
0.57718 -0.682564 1.33556 
0.563197 -0.614446 1.31789 
0.56084 -0.620115 1.32035 
0.555191 -0.628955 1.32485 
0.549516 -0.637764 1.32936 
0.543813 -0.646542 1.33387 
0.536765 -0.656555 1.3392 
0.538929 -0.65768 1.33879 
0.540433 -0.659438 1.33879 
0.542601 -0.660568 1.33838 
0.54477 -0.6617 1.33797 
0.546943 -0.662835 1.33756 
0.548451 -0.664597 1.33756 
0.550627 -0.665737 1.33715 
0.552805 -0.666879 1.33674 
0.554986 -0.668024 1.33633 
0.556498 -0.669791 1.33633 
0.558682 -0.67094 1.33592 
0.560869 -0.672093 1.33551 
0.563059 -0.673248 1.3351 
0.564574 -0.675019 1.3351 
0.566768 -0.676179 1.33469 
0.568963 -0.677341 1.33428 
0.571161 -0.678506 1.33387 
0.572681 -0.680282 1.33387 
0.574882 -0.681451 1.33346 
0.577087 -0.682624 1.33305 
0.563049 -0.614491 1.31531 
0.56135 -0.619519 1.31736 
0.555711 -0.628356 1.32189 
0.550044 -0.637163 1.32642 
0.544351 -0.645937 1.33094 
0.536656 -0.656579 1.33671 
0.53882 -0.657706 1.33629 
0.540326 -0.659466 1.33629 
0.542493 -0.660597 1.33588 
0.544664 -0.661731 1.33547 
0.546837 -0.662868 1.33506 
0.548346 -0.664632 1.33506 
0.550523 -0.665773 1.33465 
0.552702 -0.666918 1.33424 
0.554883 -0.668065 1.33382 
0.556396 -0.669833 1.33382 
0.558581 -0.670984 1.33341 
0.560769 -0.672139 1.333 
0.562959 -0.673296 1.33259 
0.565152 -0.674456 1.33218 
0.56667 -0.67623 1.33218 
0.568866 -0.677394 1.33177 
0.571065 -0.678561 1.33136 
0.573266 -0.679731 1.33094 
0.574787 -0.68151 1.33094 
0.576992 -0.682684 1.33053 
0.562899 -0.614537 1.31272 
0.561205 -0.619563 1.31479 
0.555574 -0.628396 1.31934 
0.549915 -0.637198 1.32388 
0.54423 -0.645968 1.32843 
0.536545 -0.656604 1.33421 
0.53871 -0.657733 1.3338 
0.540877 -0.658864 1.33338 
0.542385 -0.660627 1.33338 
0.544556 -0.661763 1.33297 
0.546729 -0.662902 1.33256 
0.548905 -0.664044 1.33214 
0.550417 -0.665811 1.33214 
0.552597 -0.666957 1.33173 
0.554779 -0.668106 1.33132 
0.556963 -0.669258 1.3309 
0.558479 -0.67103 1.3309 
0.560667 -0.672186 1.33049 
0.562858 -0.673345 1.33008 
0.565051 -0.674507 1.32967 
0.56657 -0.676283 1.32967 
0.568767 -0.677449 1.32925 
0.570966 -0.678618 1.32884 
0.573168 -0.67979 1.32843 
0.574691 -0.68157 1.32843 
0.576897 -0.682746 1.32801 
0.563399 -0.613944 1.30972 
0.56171 -0.618971 1.3118 
0.555435 -0.628438 1.31678 
0.549785 -0.637235 1.32134 
0.544764 -0.645367 1.32549 
0.536433 -0.65663 1.33171 
0.538598 -0.657761 1.3313 
0.540766 -0.658895 1.33088 
0.542275 -0.660659 1.33088 
0.544447 -0.661797 1.33047 
0.546621 -0.662938 1.33005 
0.548797 -0.664082 1.32964 
0.550311 -0.66585 1.32964 
0.552491 -0.666998 1.32922 
0.554673 -0.668149 1.32881 
0.556859 -0.669303 1.32839 
0.558376 -0.671076 1.32839 
0.560564 -0.672234 1.32798 
0.562756 -0.673395 1.32756 
0.564949 -0.674559 1.32715 
0.567145 -0.675726 1.32673 
0.568667 -0.677504 1.32673 
0.570867 -0.678675 1.32632 
0.57307 -0.679849 1.3259 
0.575274 -0.681026 1.32549 
0.5768 -0.682809 1.32549 
0.563246 -0.613993 1.30713 
0.561562 -0.619018 1.30921 
0.555948 -0.627844 1.3138 
0.550308 -0.636638 1.31838 
0.54464 -0.645401 1.32296 
0.536319 -0.656657 1.32921 
0.538485 -0.65779 1.32879 
0.540654 -0.658926 1.32838 
0.542165 -0.660691 1.32838 
0.544337 -0.661831 1.32796 
0.546511 -0.662974 1.32754 
0.548688 -0.66412 1.32713 
0.550868 -0.665269 1.32671 
0.552384 -0.66704 1.32671 
0.554567 -0.668193 1.32629 
0.556753 -0.669349 1.32588 
0.558941 -0.670507 1.32546 
0.56046 -0.672283 1.32546 
0.562652 -0.673446 1.32504 
0.564846 -0.674612 1.32463 
0.567043 -0.675781 1.32421 
0.568566 -0.677561 1.32421 
0.570767 -0.678734 1.32379 
0.572969 -0.67991 1.32338 
0.575175 -0.681089 1.32296 
0.577383 -0.682271 1.32254 
0.563092 -0.614042 1.30453 
0.562063 -0.61843 1.30621 
0.555807 -0.627888 1.31123 
0.550174 -0.636677 1.31583 
0.544515 -0.645435 1.32043 
0.536205 -0.656686 1.32671 
0.538371 -0.65782 1.32629 
0.540541 -0.658958 1.32587 
0.542712 -0.660098 1.32545 
0.544225 -0.661867 1.32545 
0.5464 -0.663012 1.32503 
0.548578 -0.66416 1.32461 
0.550758 -0.66531 1.3242 
0.552275 -0.667083 1.3242 
0.554459 -0.668238 1.32378 
0.556645 -0.669396 1.32336 
0.558834 -0.670556 1.32294 
0.560355 -0.672334 1.32294 
0.562547 -0.673499 1.32252 
0.564742 -0.674666 1.3221 
0.566939 -0.675837 1.32169 
0.569139 -0.677011 1.32127 
0.570665 -0.678794 1.32127 
0.572868 -0.679972 1.32085 
0.575074 -0.681152 1.32043 
0.577283 -0.682336 1.32001 
0.562937 -0.614093 1.30194 
0.561911 -0.61848 1.30362 
0.556315 -0.627298 1.30824 
0.550692 -0.636085 1.31286 
0.545042 -0.644839 1.31748 
0.536089 -0.656715 1.3242 
0.538256 -0.657852 1.32378 
0.540426 -0.658991 1.32336 
0.542598 -0.660134 1.32294 
0.544112 -0.661904 1.32294 
0.546288 -0.663051 1.32252 
0.548467 -0.6642 1.3221 
0.550647 -0.665353 1.32168 
0.552165 -0.667127 1.32168 
0.55435 -0.668284 1.32126 
0.556537 -0.669444 1.32084 
0.558726 -0.670606 1.32042 
0.560918 -0.671772 1.32 
0.562441 -0.673552 1.32 
0.564637 -0.674722 1.31958 
0.566834 -0.675895 1.31916 
0.569035 -0.67707 1.31874 
0.570562 -0.678855 1.31874 
0.572766 -0.680034 1.31832 
0.574972 -0.681217 1.3179 
0.577182 -0.682403 1.31748 
0.56278 -0.614145 1.29933 
0.562408 -0.617895 1.3006 
0.556171 -0.627345 1.30566 
0.550556 -0.636127 1.3103 
0.544914 -0.644877 1.31494 
0.535972 -0.656745 1.32169 
0.53814 -0.657884 1.32126 
0.54031 -0.659025 1.32084 
0.542483 -0.66017 1.32042 
0.544658 -0.661317 1.32 
0.546175 -0.66309 1.32 
0.548354 -0.664242 1.31958 
0.550535 -0.665396 1.31915 
0.552719 -0.666554 1.31873 
0.554239 -0.668331 1.31873 
0.556427 -0.669493 1.31831 
0.558617 -0.670657 1.31789 
0.560809 -0.671825 1.31747 
0.562334 -0.673606 1.31747 
0.56453 -0.674778 1.31705 
0.566728 -0.675953 1.31662 
0.568929 -0.677131 1.3162 
0.571133 -0.678311 1.31578 
0.572662 -0.680098 1.31578 
0.574869 -0.681283 1.31536 
0.577079 -0.682471 1.31494 
0.564566 -0.612288 1.29546 
0.562254 -0.617948 1.298 
0.556675 -0.626759 1.30266 
0.55107 -0.635538 1.30731 
0.545437 -0.644285 1.31197 
0.536507 -0.656147 1.31875 
0.538022 -0.657917 1.31875 
0.540193 -0.659061 1.31832 
0.542366 -0.660207 1.3179 
0.544542 -0.661357 1.31748 
0.54606 -0.663131 1.31748 
0.54824 -0.664285 1.31705 
0.550422 -0.665441 1.31663 
0.552606 -0.666601 1.31621 
0.554128 -0.668379 1.31621 
0.556316 -0.669543 1.31578 
0.558506 -0.67071 1.31536 
0.560699 -0.671879 1.31494 
0.562895 -0.673051 1.31451 
0.564422 -0.674836 1.31451 
0.566621 -0.676012 1.31409 
0.568823 -0.677192 1.31367 
0.571027 -0.678374 1.31324 
0.572557 -0.680163 1.31324 
0.574765 -0.68135 1.31282 
0.576975 -0.68254 1.3124 
0.561449 -0.618636 1.29582 
0.556527 -0.626808 1.30007 
0.55093 -0.635582 1.30475 
0.545306 -0.644325 1.30942 
0.536387 -0.656181 1.31623 
0.537903 -0.657952 1.31623 
0.540074 -0.659097 1.3158 
0.542248 -0.660246 1.31538 
0.544425 -0.661397 1.31495 
0.546604 -0.662551 1.31453 
0.548124 -0.664329 1.31453 
0.550307 -0.665487 1.3141 
0.552492 -0.666648 1.31368 
0.554679 -0.667813 1.31325 
0.556204 -0.669594 1.31325 
0.558395 -0.670763 1.31283 
0.560588 -0.671934 1.3124 
0.562784 -0.673109 1.31198 
0.564312 -0.674894 1.31198 
0.566512 -0.676073 1.31155 
0.568714 -0.677255 1.31112 
0.570919 -0.678439 1.3107 
0.573126 -0.679626 1.31027 
0.574659 -0.681418 1.31027 
0.57687 -0.682609 1.30985 
0.557027 -0.626225 1.29706 
0.551439 -0.634997 1.30175 
0.545824 -0.643737 1.30645 
0.536266 -0.656215 1.3137 
0.538437 -0.657361 1.31328 
0.539955 -0.659135 1.31328 
0.542129 -0.660285 1.31285 
0.544306 -0.661439 1.31242 
0.546486 -0.662595 1.312 
0.548008 -0.664374 1.312 
0.550191 -0.665534 1.31157 
0.552376 -0.666697 1.31114 
0.554564 -0.667864 1.31071 
0.556755 -0.669033 1.31029 
0.558282 -0.670817 1.31029 
0.560476 -0.671991 1.30986 
0.562673 -0.673167 1.30943 
0.564872 -0.674346 1.30901 
0.566402 -0.676135 1.30901 
0.568605 -0.677318 1.30858 
0.57081 -0.678505 1.30815 
0.573018 -0.679694 1.30773 
0.575228 -0.680886 1.3073 
0.576764 -0.682681 1.3073 
0.554931 -0.628173 1.29575 
0.551296 -0.635044 1.29918 
0.54569 -0.64378 1.30389 
0.536143 -0.65625 1.31118 
0.538314 -0.657398 1.31075 
0.539834 -0.659174 1.31075 
0.542009 -0.660326 1.31032 
0.544187 -0.661481 1.30989 
0.546367 -0.662639 1.30946 
0.548549 -0.6638 1.30903 
0.550073 -0.665582 1.30903 
0.55226 -0.666747 1.3086 
0.554448 -0.667916 1.30818 
0.55664 -0.669087 1.30775 
0.558168 -0.670872 1.30775 
0.560362 -0.672048 1.30732 
0.56256 -0.673226 1.30689 
0.564759 -0.674407 1.30646 
0.566962 -0.675591 1.30603 
0.568494 -0.677383 1.30603 
0.5707 -0.678571 1.3056 
0.572909 -0.679763 1.30518 
0.57512 -0.680957 1.30475 
0.576656 -0.682753 1.30475 
0.551801 -0.634463 1.29617 
0.545554 -0.643824 1.30133 
0.536019 -0.656286 1.30864 
0.538191 -0.657436 1.30821 
0.540366 -0.658589 1.30778 
0.541887 -0.660368 1.30778 
0.544066 -0.661525 1.30735 
0.546246 -0.662685 1.30692 
0.548429 -0.663848 1.30649 
0.549955 -0.665631 1.30649 
0.552142 -0.666798 1.30606 
0.554331 -0.667969 1.30563 
0.556523 -0.669142 1.3052 
0.558717 -0.670318 1.30477 
0.560247 -0.672106 1.30477 
0.562445 -0.673287 1.30434 
0.564646 -0.67447 1.30391 
0.566849 -0.675656 1.30348 
0.568383 -0.677449 1.30348 
0.570589 -0.678639 1.30305 
0.572798 -0.679832 1.30262 
0.57501 -0.681028 1.30219 
0.577224 -0.682227 1.30176 
0.548414 -0.637661 1.29574 
0.546066 -0.643241 1.29834 
0.535894 -0.656324 1.30611 
0.538066 -0.657476 1.30568 
0.540241 -0.65863 1.30525 
0.541765 -0.660411 1.30525 
0.543943 -0.66157 1.30481 
0.546125 -0.662732 1.30438 
0.548308 -0.663897 1.30395 
0.550495 -0.665065 1.30352 
0.552023 -0.666851 1.30352 
0.554212 -0.668023 1.30309 
0.556405 -0.669198 1.30266 
0.5586 -0.670376 1.30222 
0.560131 -0.672166 1.30222 
0.56233 -0.673348 1.30179 
0.564531 -0.674533 1.30136 
0.566734 -0.675721 1.30093 
0.56894 -0.676912 1.3005 
0.570477 -0.678708 1.3005 
0.572686 -0.679903 1.30006 
0.574898 -0.681101 1.29963 
0.577113 -0.682302 1.2992 
0.545927 -0.643288 1.29577 
0.535767 -0.656362 1.30357 
0.53794 -0.657516 1.30314 
0.540116 -0.658673 1.30271 
0.542294 -0.659833 1.30227 
0.54382 -0.661616 1.30227 
0.546002 -0.66278 1.30184 
0.548186 -0.663947 1.30141 
0.550373 -0.665116 1.30097 
0.551902 -0.666904 1.30097 
0.554093 -0.668078 1.30054 
0.556286 -0.669255 1.3001 
0.558481 -0.670435 1.29967 
0.560679 -0.671618 1.29924 
0.562213 -0.673411 1.29924 
0.564415 -0.674598 1.2988 
0.566619 -0.675788 1.29837 
0.568825 -0.676981 1.29794 
0.571034 -0.678176 1.2975 
0.572573 -0.679975 1.2975 
0.535639 -0.656402 1.30103 
0.537813 -0.657557 1.3006 
0.53999 -0.658716 1.30016 
0.542168 -0.659878 1.29973 
0.543695 -0.661663 1.29973 
0.545878 -0.662829 1.29929 
0.548063 -0.663997 1.29886 
0.55025 -0.665169 1.29842 
0.55244 -0.666344 1.29799 
0.553971 -0.668134 1.29799 
0.556165 -0.669313 1.29755 
0.536159 -0.655817 1.29805 
0.537685 -0.6576 1.29805 
0.539862 -0.658761 1.29761 
